<?xml version="1.0" encoding="UTF-8" standalone="no"?><!-- Generator: Gravit.io --><svg xmlns="http://www.w3.org/2000/svg" xmlns:xlink="http://www.w3.org/1999/xlink" style="isolation:isolate" viewBox="0 0 560 315" width="560pt" height="315pt"><defs><clipPath id="_clipPath_8AkLqoqtgLocDwbf2X4k2hAtUKWRyusp"><rect width="560" height="315"/></clipPath></defs><g clip-path="url(#_clipPath_8AkLqoqtgLocDwbf2X4k2hAtUKWRyusp)"><rect width="560" height="315" style="fill:rgb(54,30,30)" fill-opacity="0"/><circle vector-effect="non-scaling-stroke" cx="256.09762399756784" cy="164.1549070955448" r="112.09762399756784" fill="rgb(235,235,235)"/><path d=" M 167.345 208.684 L 159.207 52.538 L 159.207 52.538 Q 161.289 49.509 164.222 50.739 L 164.222 50.739 L 164.222 50.739 Q 167.156 51.97 169.711 54.525 L 169.711 54.525 L 169.711 54.525 Q 172.266 57.08 173.78 59.635 L 173.78 59.635 L 173.78 59.635 Q 175.294 62.19 174.537 62.001 L 174.537 62.001 L 243.999 180.672 L 243.999 180.672 Q 244.567 177.833 245.04 171.493 L 245.04 171.493 L 245.04 171.493 Q 245.513 165.152 245.702 156.54 L 245.702 156.54 L 245.702 156.54 Q 245.891 147.929 245.797 137.708 L 245.797 137.708 L 245.797 137.708 Q 245.702 127.488 245.418 117.267 L 245.418 117.267 L 245.418 117.267 Q 245.134 107.047 244.567 97.205 L 244.567 97.205 L 244.567 97.205 Q 243.999 87.363 243.242 79.508 L 243.242 79.508 L 243.242 79.508 Q 242.485 71.654 241.538 66.449 L 241.538 66.449 L 241.538 66.449 Q 240.592 61.244 239.267 60.108 L 239.267 60.108 L 239.267 60.108 Q 239.267 57.08 240.403 54.336 L 240.403 54.336 L 240.403 54.336 Q 241.538 51.591 244.945 51.591 L 244.945 51.591 L 244.945 51.591 Q 248.163 51.591 250.245 55.377 L 250.245 55.377 L 250.245 55.377 Q 252.327 59.162 253.462 63.894 L 253.462 63.894 L 253.462 63.894 Q 254.598 68.625 255.071 73.168 L 255.071 73.168 L 255.071 73.168 Q 255.544 77.71 255.544 79.035 L 255.544 79.035 L 255.544 79.035 Q 255.733 82.82 255.828 91.054 L 255.828 91.054 L 255.828 91.054 Q 255.923 99.287 256.017 109.886 L 256.017 109.886 L 256.017 109.886 Q 256.112 120.485 256.207 132.125 L 256.207 132.125 L 256.207 132.125 Q 256.301 143.765 256.396 154.364 L 256.396 154.364 L 256.396 154.364 Q 256.491 164.963 256.491 173.291 L 256.491 173.291 L 256.491 173.291 Q 256.491 181.618 256.68 185.404 L 256.68 185.404 L 256.68 185.404 Q 256.869 190.703 258.099 194.678 L 258.099 194.678 L 258.099 194.678 Q 259.33 198.653 259.33 203.763 L 259.33 203.763 L 259.33 203.763 Q 259.33 207.927 256.207 210.009 L 256.207 210.009 L 256.207 210.009 Q 253.084 212.091 249.298 212.091 L 249.298 212.091 L 249.298 212.091 Q 247.216 212.091 245.608 211.523 L 245.608 211.523 L 245.608 211.523 Q 243.999 210.955 243.052 209.63 L 243.052 209.63 L 243.052 209.63 Q 242.106 208.305 242.011 206.129 L 242.011 206.129 L 242.011 206.129 Q 241.917 203.952 242.863 200.735 L 242.863 200.735 L 242.863 200.735 Q 239.456 196.76 234.157 187.391 L 234.157 187.391 L 234.157 187.391 Q 228.857 178.022 222.517 166.193 L 222.517 166.193 L 222.517 166.193 Q 216.176 154.364 209.268 141.304 L 209.268 141.304 L 209.268 141.304 Q 202.36 128.245 196.019 116.605 L 196.019 116.605 L 196.019 116.605 Q 189.679 104.965 184.19 96.258 L 184.19 96.258 L 184.19 96.258 Q 178.701 87.552 175.294 84.335 L 175.294 84.335 L 175.294 84.335 Q 174.348 96.637 174.727 112.819 L 174.727 112.819 L 174.727 112.819 Q 175.105 129.002 176.052 145.941 L 176.052 145.941 L 176.052 145.941 Q 176.998 162.881 178.039 178.969 L 178.039 178.969 L 178.039 178.969 Q 179.08 195.056 179.08 207.359 L 179.08 207.359 L 179.08 207.359 Q 179.08 211.334 176.809 212.375 L 176.809 212.375 L 176.809 212.375 Q 174.537 213.415 172.077 212.848 L 172.077 212.848 L 172.077 212.848 Q 169.616 212.28 167.913 210.86 L 167.913 210.86 L 167.913 210.86 Q 166.21 209.441 167.345 208.684 L 167.345 208.684 Z " fill="rgb(0,0,0)"/><path d=" M 290.136 120.37 L 290.503 107.056 L 290.503 107.056 Q 289.831 108.583 288.487 110.598 L 288.487 110.598 L 288.487 110.598 Q 287.144 112.614 285.373 114.385 L 285.373 114.385 L 285.373 114.385 Q 283.602 116.156 281.495 117.408 L 281.495 117.408 L 281.495 117.408 Q 279.388 118.66 277.129 118.66 L 277.129 118.66 L 277.129 118.66 Q 276.151 118.66 275.571 118.415 L 275.571 118.415 L 275.571 118.415 Q 274.991 118.171 274.533 117.713 L 274.533 117.713 L 274.533 117.713 Q 274.075 117.255 273.709 116.583 L 273.709 116.583 L 273.709 116.583 Q 273.342 115.911 272.793 115.056 L 272.793 115.056 L 272.793 115.056 Q 272.243 112.003 272.212 108.278 L 272.212 108.278 L 272.212 108.278 Q 272.182 104.553 272.823 100.766 L 272.823 100.766 L 272.823 100.766 Q 273.464 96.98 274.777 93.53 L 274.777 93.53 L 274.777 93.53 Q 276.09 90.079 278.197 87.636 L 278.197 87.636 L 278.197 87.636 Q 280.304 85.194 283.266 84.125 L 283.266 84.125 L 283.266 84.125 Q 286.228 83.056 290.136 83.972 L 290.136 83.972 L 290.136 83.972 Q 290.503 80.125 290.197 76.247 L 290.197 76.247 L 290.197 76.247 Q 289.892 72.369 289.709 68.155 L 289.709 68.155 L 289.709 68.155 Q 289.709 67.544 290.258 67.27 L 290.258 67.27 L 290.258 67.27 Q 290.808 66.995 291.51 66.903 L 291.51 66.903 L 291.51 66.903 Q 292.213 66.812 292.854 66.873 L 292.854 66.873 L 292.854 66.873 Q 293.495 66.934 293.678 67.117 L 293.678 67.117 L 293.678 67.117 Q 293.617 72.613 293.587 77.193 L 293.587 77.193 L 293.587 77.193 Q 293.556 81.774 293.556 85.835 L 293.556 85.835 L 293.556 85.835 Q 293.556 89.896 293.556 93.682 L 293.556 93.682 L 293.556 93.682 Q 293.556 97.468 293.587 101.438 L 293.587 101.438 L 293.587 101.438 Q 293.617 105.408 293.648 109.805 L 293.648 109.805 L 293.648 109.805 Q 293.678 114.201 293.678 119.453 L 293.678 119.453 L 293.678 119.453 Q 293.984 120.431 293.526 121.102 L 293.526 121.102 L 293.526 121.102 Q 293.068 121.774 292.396 121.957 L 292.396 121.957 L 292.396 121.957 Q 291.724 122.141 291.022 121.774 L 291.022 121.774 L 291.022 121.774 Q 290.32 121.408 290.136 120.37 L 290.136 120.37 Z  M 287.571 87.331 L 287.571 87.331 L 287.571 87.331 Q 285.251 86.965 283.205 88.583 L 283.205 88.583 L 283.205 88.583 Q 281.159 90.201 279.571 92.98 L 279.571 92.98 L 279.571 92.98 Q 277.984 95.759 276.945 99.209 L 276.945 99.209 L 276.945 99.209 Q 275.907 102.659 275.632 105.866 L 275.632 105.866 L 275.632 105.866 Q 275.358 109.072 275.907 111.637 L 275.907 111.637 L 275.907 111.637 Q 276.457 114.201 278.045 115.179 L 278.045 115.179 L 278.045 115.179 Q 279.571 115.179 281.037 114.11 L 281.037 114.11 L 281.037 114.11 Q 282.503 113.041 283.816 111.392 L 283.816 111.392 L 283.816 111.392 Q 285.129 109.743 286.258 107.698 L 286.258 107.698 L 286.258 107.698 Q 287.388 105.652 288.243 103.698 L 288.243 103.698 L 288.243 103.698 Q 289.098 101.743 289.556 100.125 L 289.556 100.125 L 289.556 100.125 Q 290.014 98.507 290.014 97.652 L 290.014 97.652 L 290.014 97.652 Q 290.014 96.98 290.014 95.27 L 290.014 95.27 L 290.014 95.27 Q 290.014 93.56 289.8 91.789 L 289.8 91.789 L 289.8 91.789 Q 289.587 90.018 289.068 88.674 L 289.068 88.674 L 289.068 88.674 Q 288.549 87.331 287.571 87.331 Z  M 299.175 102.476 L 299.175 102.476 L 299.175 102.476 Q 298.747 102.843 297.678 102.751 L 297.678 102.751 L 297.678 102.751 Q 296.61 102.659 295.724 102.293 L 295.724 102.293 L 295.724 102.293 Q 294.839 101.927 294.533 101.285 L 294.533 101.285 L 294.533 101.285 Q 294.228 100.644 295.266 99.789 L 295.266 99.789 L 295.266 99.789 Q 295.694 99.423 296.213 99.27 L 296.213 99.27 L 296.213 99.27 Q 296.732 99.117 297.251 98.965 L 297.251 98.965 L 297.251 98.965 Q 297.77 98.812 298.106 98.507 L 298.106 98.507 L 298.106 98.507 Q 298.442 98.201 298.503 97.53 L 298.503 97.53 L 298.503 97.53 Q 298.564 94.781 298.961 91.911 L 298.961 91.911 L 298.961 91.911 Q 299.358 89.041 300.457 86.781 L 300.457 86.781 L 300.457 86.781 Q 301.556 84.522 303.602 83.178 L 303.602 83.178 L 303.602 83.178 Q 305.648 81.835 309.007 82.14 L 309.007 82.14 L 309.007 82.14 Q 310.228 82.14 311.755 82.72 L 311.755 82.72 L 311.755 82.72 Q 313.282 83.3 314.686 84.247 L 314.686 84.247 L 314.686 84.247 Q 316.091 85.194 317.129 86.507 L 317.129 86.507 L 317.129 86.507 Q 318.167 87.82 318.411 89.346 L 318.411 89.346 L 318.411 89.346 Q 318.839 89.957 317.923 90.873 L 317.923 90.873 L 317.923 90.873 Q 317.007 91.789 315.358 92.919 L 315.358 92.919 L 315.358 92.919 Q 313.709 94.049 311.633 95.209 L 311.633 95.209 L 311.633 95.209 Q 309.556 96.369 307.633 97.407 L 307.633 97.407 L 307.633 97.407 Q 305.709 98.446 304.243 99.239 L 304.243 99.239 L 304.243 99.239 Q 302.778 100.033 302.35 100.339 L 302.35 100.339 L 302.35 100.339 Q 302.717 102.72 303.144 105.346 L 303.144 105.346 L 303.144 105.346 Q 303.572 107.972 304.366 110.171 L 304.366 110.171 L 304.366 110.171 Q 305.159 112.369 306.35 113.805 L 306.35 113.805 L 306.35 113.805 Q 307.541 115.24 309.373 115.24 L 309.373 115.24 L 309.373 115.24 Q 312.06 115.423 313.984 114.446 L 313.984 114.446 L 313.984 114.446 Q 315.908 113.469 317.19 111.881 L 317.19 111.881 L 317.19 111.881 Q 318.473 110.293 319.236 108.4 L 319.236 108.4 L 319.236 108.4 Q 319.999 106.507 320.396 104.797 L 320.396 104.797 L 320.396 104.797 Q 320.793 103.087 320.946 101.896 L 320.946 101.896 L 320.946 101.896 Q 321.099 100.705 321.221 100.583 L 321.221 100.583 L 321.221 100.583 Q 321.892 100.217 322.747 100.552 L 322.747 100.552 L 322.747 100.552 Q 323.602 100.888 323.725 102.354 L 323.725 102.354 L 323.725 102.354 Q 323.786 104.736 322.686 107.789 L 322.686 107.789 L 322.686 107.789 Q 321.587 110.843 319.663 113.408 L 319.663 113.408 L 319.663 113.408 Q 317.74 115.973 315.083 117.53 L 315.083 117.53 L 315.083 117.53 Q 312.427 119.087 309.434 118.598 L 309.434 118.598 L 309.434 118.598 Q 306.32 118.537 304.488 116.797 L 304.488 116.797 L 304.488 116.797 Q 302.656 115.056 301.587 112.583 L 301.587 112.583 L 301.587 112.583 Q 300.518 110.11 300.03 107.362 L 300.03 107.362 L 300.03 107.362 Q 299.541 104.614 299.175 102.476 Z  M 302.289 96.675 L 315.175 89.346 L 315.175 89.346 Q 313.221 86.659 311.205 85.926 L 311.205 85.926 L 311.205 85.926 Q 309.19 85.194 307.053 85.499 L 307.053 85.499 L 307.053 85.499 Q 305.77 85.682 304.793 86.69 L 304.793 86.69 L 304.793 86.69 Q 303.816 87.697 303.205 89.255 L 303.205 89.255 L 303.205 89.255 Q 302.595 90.812 302.35 92.736 L 302.35 92.736 L 302.35 92.736 Q 302.106 94.659 302.289 96.675 L 302.289 96.675 Z  M 326.656 118.049 L 326.534 67.85 L 326.534 67.85 Q 326.9 67.606 327.297 67.331 L 327.297 67.331 L 327.297 67.331 Q 327.694 67.056 328.122 66.964 L 328.122 66.964 L 328.122 66.964 Q 328.549 66.873 328.885 67.056 L 328.885 67.056 L 328.885 67.056 Q 329.221 67.239 329.465 67.85 L 329.465 67.85 L 329.831 118.232 L 329.831 118.232 Q 329.526 118.843 329.038 119.057 L 329.038 119.057 L 329.038 119.057 Q 328.549 119.27 328.06 119.179 L 328.06 119.179 L 328.06 119.179 Q 327.572 119.087 327.175 118.782 L 327.175 118.782 L 327.175 118.782 Q 326.778 118.476 326.656 118.049 L 326.656 118.049 Z " fill="rgb(0,0,0)"/><path d=" M 270.372 282.412 L 270.75 140.461 L 270.75 140.461 Q 269.804 137.243 269.331 134.688 L 269.331 134.688 L 269.331 134.688 Q 268.858 132.133 269.236 129.105 L 269.236 129.105 L 269.236 129.105 Q 269.426 128.158 269.71 127.023 L 269.71 127.023 L 269.71 127.023 Q 269.993 125.887 270.656 125.225 L 270.656 125.225 L 270.656 125.225 Q 271.318 124.562 272.454 124.278 L 272.454 124.278 L 272.454 124.278 Q 273.59 123.995 275.482 124.752 L 275.482 124.752 L 275.482 124.752 Q 276.618 125.319 277.753 126.739 L 277.753 126.739 L 277.753 126.739 Q 278.889 128.158 279.741 130.051 L 279.741 130.051 L 279.741 130.051 Q 280.592 131.944 281.16 133.647 L 281.16 133.647 L 281.16 133.647 Q 281.728 135.351 281.917 136.486 L 281.917 136.486 L 281.917 136.486 Q 287.028 133.458 293.273 130.335 L 293.273 130.335 L 293.273 130.335 Q 299.519 127.212 306.238 125.035 L 306.238 125.035 L 306.238 125.035 Q 312.957 122.859 319.771 121.818 L 319.771 121.818 L 319.771 121.818 Q 326.585 120.777 332.83 121.534 L 332.83 121.534 L 332.83 121.534 Q 334.912 121.723 337.657 122.575 L 337.657 122.575 L 337.657 122.575 Q 340.401 123.427 342.767 124.846 L 342.767 124.846 L 342.767 124.846 Q 345.133 126.266 346.742 128.253 L 346.742 128.253 L 346.742 128.253 Q 348.35 130.24 347.972 132.89 L 347.972 132.89 L 347.972 132.89 Q 347.972 138 345.795 143.489 L 345.795 143.489 L 345.795 143.489 Q 343.619 148.978 340.212 154.467 L 340.212 154.467 L 340.212 154.467 Q 336.805 159.955 332.547 165.255 L 332.547 165.255 L 332.547 165.255 Q 328.288 170.554 324.219 175.192 L 324.219 175.192 L 324.219 175.192 Q 320.15 179.829 316.553 183.614 L 316.553 183.614 L 316.553 183.614 Q 312.957 187.399 311.065 189.86 L 311.065 189.86 L 311.065 189.86 Q 317.5 187.399 326.206 185.601 L 326.206 185.601 L 326.206 185.601 Q 334.912 183.803 343.335 184.371 L 343.335 184.371 L 343.335 184.371 Q 351.757 184.939 358.476 188.535 L 358.476 188.535 L 358.476 188.535 Q 365.195 192.131 367.467 200.27 L 367.467 200.27 L 367.467 200.27 Q 368.034 205.191 365.574 211.342 L 365.574 211.342 L 365.574 211.342 Q 363.113 217.493 358.571 224.117 L 358.571 224.117 L 358.571 224.117 Q 354.029 230.742 347.877 237.461 L 347.877 237.461 L 347.877 237.461 Q 341.726 244.18 335.007 250.426 L 335.007 250.426 L 335.007 250.426 Q 328.288 256.672 321.474 261.971 L 321.474 261.971 L 321.474 261.971 Q 314.661 267.271 308.888 271.151 L 308.888 271.151 L 308.888 271.151 Q 303.115 275.031 298.762 277.018 L 298.762 277.018 L 298.762 277.018 Q 294.409 279.005 292.516 278.627 L 292.516 278.627 L 287.974 271.056 L 287.974 271.056 Q 288.92 271.245 294.03 267.933 L 294.03 267.933 L 294.03 267.933 Q 299.141 264.621 306.238 259.227 L 306.238 259.227 L 306.238 259.227 Q 313.336 253.832 321.474 246.924 L 321.474 246.924 L 321.474 246.924 Q 329.613 240.016 336.71 233.013 L 336.71 233.013 L 336.71 233.013 Q 343.808 226.01 348.729 219.48 L 348.729 219.48 L 348.729 219.48 Q 353.65 212.951 354.407 208.03 L 354.407 208.03 L 354.407 208.03 Q 355.353 201.405 350.906 198.472 L 350.906 198.472 L 350.906 198.472 Q 346.458 195.538 338.887 195.538 L 338.887 195.538 L 338.887 195.538 Q 331.316 195.538 322.042 198.093 L 322.042 198.093 L 322.042 198.093 Q 312.768 200.648 304.44 204.717 L 304.44 204.717 L 304.44 204.717 Q 296.112 208.787 289.867 214.086 L 289.867 214.086 L 289.867 214.086 Q 283.621 219.386 282.107 225.064 L 282.107 225.064 L 282.107 225.064 Q 281.35 230.931 281.16 237.177 L 281.16 237.177 L 281.16 237.177 Q 280.971 243.423 280.876 249.763 L 280.876 249.763 L 280.876 249.763 Q 280.782 256.104 280.687 262.35 L 280.687 262.35 L 280.687 262.35 Q 280.592 268.595 279.835 274.273 L 279.835 274.273 L 279.835 274.273 Q 279.268 278.437 278.227 281.087 L 278.227 281.087 L 278.227 281.087 Q 277.186 283.737 272.643 282.98 L 272.643 282.98 L 272.643 282.98 Q 272.265 282.98 271.318 282.791 L 271.318 282.791 L 271.318 282.791 Q 270.372 282.601 270.372 282.412 L 270.372 282.412 Z  M 282.296 155.224 L 282.296 155.224 L 282.296 155.224 Q 281.728 159.009 281.444 164.876 L 281.444 164.876 L 281.444 164.876 Q 281.16 170.744 281.16 176.99 L 281.16 176.99 L 281.16 176.99 Q 281.16 183.235 281.633 189.103 L 281.633 189.103 L 281.633 189.103 Q 282.107 194.97 283.053 198.945 L 283.053 198.945 L 283.053 198.945 Q 286.46 196.106 292.422 190.995 L 292.422 190.995 L 292.422 190.995 Q 298.384 185.885 305.103 179.545 L 305.103 179.545 L 305.103 179.545 Q 311.822 173.204 318.257 166.201 L 318.257 166.201 L 318.257 166.201 Q 324.692 159.198 328.95 152.669 L 328.95 152.669 L 328.95 152.669 Q 333.209 146.139 334.345 140.745 L 334.345 140.745 L 334.345 140.745 Q 335.48 135.351 331.695 132.133 L 331.695 132.133 L 331.695 132.133 Q 328.288 131.755 323.462 132.038 L 323.462 132.038 L 323.462 132.038 Q 318.635 132.322 313.336 133.363 L 313.336 133.363 L 313.336 133.363 Q 308.036 134.404 302.737 136.297 L 302.737 136.297 L 302.737 136.297 Q 297.437 138.19 293.084 140.934 L 293.084 140.934 L 293.084 140.934 Q 288.731 143.678 285.797 147.274 L 285.797 147.274 L 285.797 147.274 Q 282.864 150.871 282.296 155.224 Z " fill="rgb(0,0,0)"/></g></svg>