<?xml version="1.0" encoding="UTF-8" standalone="no"?>
<!-- Generator: Gravit.io -->
<svg xmlns="http://www.w3.org/2000/svg" xmlns:xlink="http://www.w3.org/1999/xlink" style="isolation:isolate" viewBox="0 0 600 400" width="600pt" height="400pt"><defs><clipPath id="_clipPath_WBEkLQaA19Rt3ULuSFp9aaU24jXns56X"><rect width="600" height="400"/></clipPath></defs><g clip-path="url(#_clipPath_WBEkLQaA19Rt3ULuSFp9aaU24jXns56X)"><g><path d=" M 16.381 79.611 L 16.381 95.868 Q 5.446 97.021 -3.769 98.893 Q -6.139 99.375 -8.567 116.034 L -7.608 131.032 L -7.608 135.317 L -13.365 140.673 L -13.631 382.52 C -10.888 401.172 36.545 418.902 68.196 417.964 C 97.732 417.09 124.671 414.561 144 382.52 L 142.081 147.101 L 135.364 137.633 Q 136.3 111.352 133.445 107.464 Q 131.504 104.82 113.295 105.321 L 113.295 81.753 L 117.133 79.611 L 117.133 76.397 Q 83.601 71.438 65.297 71.04 Q 46.72 70.637 12.543 74.254 L 12.543 76.397 L 16.381 79.611 Z " fill="none" vector-effect="non-scaling-stroke" stroke-width="1" stroke="rgb(0,0,0)" stroke-linejoin="miter" stroke-linecap="square" stroke-miterlimit="3"/><clipPath id="_clipPath_Qa6qAGJTYCj4OKvRAZHzfMaCEIDQQHox"><path d=" M 16.381 79.611 L 16.381 95.868 Q 5.446 97.021 -3.769 98.893 Q -6.139 99.375 -8.567 116.034 L -7.608 131.032 L -7.608 135.317 L -13.365 140.673 L -13.631 382.52 C -10.888 401.172 36.545 418.902 68.196 417.964 C 97.732 417.09 124.671 414.561 144 382.52 L 142.081 147.101 L 135.364 137.633 Q 136.3 111.352 133.445 107.464 Q 131.504 104.82 113.295 105.321 L 113.295 81.753 L 117.133 79.611 L 117.133 76.397 Q 83.601 71.438 65.297 71.04 Q 46.72 70.637 12.543 74.254 L 12.543 76.397 L 16.381 79.611 Z " fill="none" vector-effect="non-scaling-stroke" stroke-width="1" stroke="rgb(0,0,0)" stroke-linejoin="miter" stroke-linecap="square" stroke-miterlimit="3"/></clipPath><g clip-path="url(#_clipPath_Qa6qAGJTYCj4OKvRAZHzfMaCEIDQQHox)"><path d=" M 15.421 110.781 Q 11.753 118.119 0.069 126.892 Q -2.156 119.96 -1.85 116.034 Q -1.532 111.935 1.988 105.321 C 6.831 104.192 12.288 103.527 18.3 103.263 Q 16.678 108.268 15.421 110.781 Z " fill="none" vector-effect="non-scaling-stroke" stroke-width="1" stroke="rgb(0,0,0)" stroke-linejoin="miter" stroke-linecap="square" stroke-miterlimit="3"/><path d=" M 120.011 109.707 Q 117.968 109.832 114.254 110.781 Q 116.996 117.693 119.052 120.906 Q 121.859 125.294 128.647 131.032 L 128.647 110.781 Q 123.066 109.519 120.011 109.707 Z " fill="none" vector-effect="non-scaling-stroke" stroke-width="1" stroke="rgb(0,0,0)" stroke-linejoin="miter" stroke-linecap="square" stroke-miterlimit="3"/></g><path d=" M 16.381 79.611 L 16.381 95.868 Q 5.446 97.021 -3.769 98.893 Q -6.139 99.375 -8.567 116.034 L -7.608 131.032 L -7.608 135.317 L -13.365 140.673 L -13.631 382.52 C -10.888 401.172 36.545 418.902 68.196 417.964 C 97.732 417.09 124.671 414.561 144 382.52 L 142.081 147.101 L 135.364 137.633 Q 136.3 111.352 133.445 107.464 Q 131.504 104.82 113.295 105.321 L 113.295 81.753 L 117.133 79.611 L 117.133 76.397 Q 83.601 71.438 65.297 71.04 Q 46.72 70.637 12.543 74.254 L 12.543 76.397 L 16.381 79.611 Z " fill="transparent" vector-effect="non-scaling-stroke" stroke-width="1" stroke="rgb(0,0,0)" stroke-linejoin="miter" stroke-linecap="square" stroke-miterlimit="3"/><path d=" M 15.421 110.781 Q 11.753 118.119 0.069 126.892 Q -2.156 119.96 -1.85 116.034 Q -1.532 111.935 1.988 105.321 C 6.831 104.192 12.288 103.527 18.3 103.263 Q 16.678 108.268 15.421 110.781 L 15.421 110.781 L 15.421 110.781 Z  M 16.381 79.611 L 16.381 95.868 Q 5.446 97.021 -3.769 98.893 Q -6.139 99.375 -8.567 116.034 L -7.608 131.032 L -7.608 135.317 L -13.365 140.673 L -13.631 382.52 C -10.888 401.172 36.545 418.902 68.196 417.964 C 97.732 417.09 124.671 414.561 144 382.52 L 142.081 147.101 L 135.364 137.633 Q 136.3 111.352 133.445 107.464 Q 131.504 104.82 113.295 105.321 L 113.295 93.537 L 113.295 81.753 L 117.133 79.611 L 117.133 76.397 Q 83.601 71.438 65.297 71.04 Q 46.72 70.637 12.543 74.254 L 12.543 76.397 L 16.381 79.611 L 16.381 79.611 L 16.381 79.611 Z  M 120.011 109.707 Q 117.968 109.832 114.254 110.781 Q 116.996 117.693 119.052 120.906 Q 121.859 125.294 128.647 131.032 L 128.647 110.781 Q 123.066 109.519 120.011 109.707 Z " fill-rule="evenodd" fill="rgb(255,255,255)" vector-effect="non-scaling-stroke" stroke-width="1" stroke="rgb(0,0,0)" stroke-linejoin="miter" stroke-linecap="square" stroke-miterlimit="3"/></g><g><path d=" M 127.881 153.558 L 127.881 168.082 Q 116.946 169.112 107.731 170.785 Q 105.361 171.215 102.933 186.098 L 103.892 199.496 L 103.892 203.324 L 98.135 208.11 L 97.869 424.169 C 100.612 440.832 148.045 456.671 179.696 455.834 C 209.232 455.053 236.171 452.793 255.5 424.169 L 253.581 213.852 L 246.864 205.394 Q 247.8 181.916 244.945 178.441 Q 243.004 176.08 224.795 176.527 L 224.795 155.472 L 228.633 153.558 L 228.633 150.687 Q 195.101 146.257 176.797 145.902 Q 158.22 145.542 124.043 148.773 L 124.043 150.687 L 127.881 153.558 Z " fill="none" vector-effect="non-scaling-stroke" stroke-width="1" stroke="rgb(0,0,0)" stroke-linejoin="miter" stroke-linecap="square" stroke-miterlimit="3"/><clipPath id="_clipPath_Os9P5oAwR0qd11KnM7SwG6YeQ3DEfogA"><path d=" M 127.881 153.558 L 127.881 168.082 Q 116.946 169.112 107.731 170.785 Q 105.361 171.215 102.933 186.098 L 103.892 199.496 L 103.892 203.324 L 98.135 208.11 L 97.869 424.169 C 100.612 440.832 148.045 456.671 179.696 455.834 C 209.232 455.053 236.171 452.793 255.5 424.169 L 253.581 213.852 L 246.864 205.394 Q 247.8 181.916 244.945 178.441 Q 243.004 176.08 224.795 176.527 L 224.795 155.472 L 228.633 153.558 L 228.633 150.687 Q 195.101 146.257 176.797 145.902 Q 158.22 145.542 124.043 148.773 L 124.043 150.687 L 127.881 153.558 Z " fill="none" vector-effect="non-scaling-stroke" stroke-width="1" stroke="rgb(0,0,0)" stroke-linejoin="miter" stroke-linecap="square" stroke-miterlimit="3"/></clipPath><g clip-path="url(#_clipPath_Os9P5oAwR0qd11KnM7SwG6YeQ3DEfogA)"><path d=" M 126.921 181.405 Q 123.253 187.96 111.569 195.798 Q 109.344 189.605 109.65 186.098 Q 109.968 182.436 113.488 176.527 C 118.331 175.518 123.788 174.924 129.8 174.688 Q 128.178 179.16 126.921 181.405 Z " fill="none" vector-effect="non-scaling-stroke" stroke-width="1" stroke="rgb(0,0,0)" stroke-linejoin="miter" stroke-linecap="square" stroke-miterlimit="3"/><path d=" M 231.511 180.445 Q 229.468 180.558 225.754 181.405 Q 228.496 187.58 230.552 190.451 Q 233.359 194.37 240.147 199.496 L 240.147 181.405 Q 234.566 180.278 231.511 180.445 Z " fill="none" vector-effect="non-scaling-stroke" stroke-width="1" stroke="rgb(0,0,0)" stroke-linejoin="miter" stroke-linecap="square" stroke-miterlimit="3"/></g><path d=" M 127.881 153.558 L 127.881 168.082 Q 116.946 169.112 107.731 170.785 Q 105.361 171.215 102.933 186.098 L 103.892 199.496 L 103.892 203.324 L 98.135 208.11 L 97.869 424.169 C 100.612 440.832 148.045 456.671 179.696 455.834 C 209.232 455.053 236.171 452.793 255.5 424.169 L 253.581 213.852 L 246.864 205.394 Q 247.8 181.916 244.945 178.441 Q 243.004 176.08 224.795 176.527 L 224.795 155.472 L 228.633 153.558 L 228.633 150.687 Q 195.101 146.257 176.797 145.902 Q 158.22 145.542 124.043 148.773 L 124.043 150.687 L 127.881 153.558 Z " fill="transparent" vector-effect="non-scaling-stroke" stroke-width="1" stroke="rgb(0,0,0)" stroke-linejoin="miter" stroke-linecap="square" stroke-miterlimit="3"/><path d=" M 126.921 181.405 Q 123.253 187.96 111.569 195.798 Q 109.344 189.605 109.65 186.098 Q 109.968 182.436 113.488 176.527 C 118.331 175.518 123.788 174.924 129.8 174.688 Q 128.178 179.16 126.921 181.405 L 126.921 181.405 L 126.921 181.405 Z  M 127.881 153.558 L 127.881 168.082 Q 116.946 169.112 107.731 170.785 Q 105.361 171.215 102.933 186.098 L 103.892 199.496 L 103.892 203.324 L 98.135 208.11 L 97.869 424.169 C 100.612 440.832 148.045 456.671 179.696 455.834 C 209.232 455.053 236.171 452.793 255.5 424.169 L 253.581 213.852 L 246.864 205.394 Q 247.8 181.916 244.945 178.441 Q 243.004 176.08 224.795 176.527 L 224.795 166 L 224.795 155.472 L 228.633 153.558 L 228.633 150.687 Q 195.101 146.257 176.797 145.902 Q 158.22 145.542 124.043 148.773 L 124.043 150.687 L 127.881 153.558 L 127.881 153.558 L 127.881 153.558 Z  M 231.511 180.445 Q 229.468 180.558 225.754 181.405 Q 228.496 187.58 230.552 190.451 Q 233.359 194.37 240.147 199.496 L 240.147 181.405 Q 234.566 180.278 231.511 180.445 Z " fill-rule="evenodd" fill="rgb(255,255,255)" vector-effect="non-scaling-stroke" stroke-width="1" stroke="rgb(0,0,0)" stroke-linejoin="miter" stroke-linecap="square" stroke-miterlimit="3"/></g><g><path d=" M 496.483 84.809 L 496.483 101.441 Q 485.725 102.621 476.658 104.537 Q 474.327 105.029 471.938 122.072 L 472.882 137.416 L 472.882 141.799 L 467.217 147.279 L 466.956 394.702 C 469.655 413.784 516.322 431.922 547.463 430.964 C 576.522 430.069 603.027 427.481 622.044 394.702 L 620.156 153.855 L 613.548 144.169 Q 614.469 117.283 611.659 113.304 Q 609.75 110.6 591.834 111.112 L 591.834 87.001 L 595.61 84.809 L 595.61 81.521 Q 562.619 76.448 544.61 76.041 Q 526.333 75.629 492.707 79.329 L 492.707 81.521 L 496.483 84.809 Z " fill="none" vector-effect="non-scaling-stroke" stroke-width="1" stroke="rgb(0,0,0)" stroke-linejoin="miter" stroke-linecap="square" stroke-miterlimit="3"/><clipPath id="_clipPath_v6tdyMPpcJz1sJ3IkMhtjX5LRuJ1DUN2"><path d=" M 496.483 84.809 L 496.483 101.441 Q 485.725 102.621 476.658 104.537 Q 474.327 105.029 471.938 122.072 L 472.882 137.416 L 472.882 141.799 L 467.217 147.279 L 466.956 394.702 C 469.655 413.784 516.322 431.922 547.463 430.964 C 576.522 430.069 603.027 427.481 622.044 394.702 L 620.156 153.855 L 613.548 144.169 Q 614.469 117.283 611.659 113.304 Q 609.75 110.6 591.834 111.112 L 591.834 87.001 L 595.61 84.809 L 595.61 81.521 Q 562.619 76.448 544.61 76.041 Q 526.333 75.629 492.707 79.329 L 492.707 81.521 L 496.483 84.809 Z " fill="none" vector-effect="non-scaling-stroke" stroke-width="1" stroke="rgb(0,0,0)" stroke-linejoin="miter" stroke-linecap="square" stroke-miterlimit="3"/></clipPath><g clip-path="url(#_clipPath_v6tdyMPpcJz1sJ3IkMhtjX5LRuJ1DUN2)"><path d=" M 495.539 116.698 Q 491.93 124.205 480.434 133.181 Q 478.246 126.089 478.546 122.072 Q 478.86 117.878 482.322 111.112 C 487.088 109.957 492.456 109.277 498.372 109.006 Q 496.775 114.128 495.539 116.698 Z " fill="none" vector-effect="non-scaling-stroke" stroke-width="1" stroke="rgb(0,0,0)" stroke-linejoin="miter" stroke-linecap="square" stroke-miterlimit="3"/><path d=" M 598.442 115.599 Q 596.432 115.728 592.778 116.698 Q 595.476 123.77 597.498 127.057 Q 600.261 131.546 606.939 137.416 L 606.939 116.698 Q 601.447 115.408 598.442 115.599 Z " fill="none" vector-effect="non-scaling-stroke" stroke-width="1" stroke="rgb(0,0,0)" stroke-linejoin="miter" stroke-linecap="square" stroke-miterlimit="3"/></g><path d=" M 496.483 84.809 L 496.483 101.441 Q 485.725 102.621 476.658 104.537 Q 474.327 105.029 471.938 122.072 L 472.882 137.416 L 472.882 141.799 L 467.217 147.279 L 466.956 394.702 C 469.655 413.784 516.322 431.922 547.463 430.964 C 576.522 430.069 603.027 427.481 622.044 394.702 L 620.156 153.855 L 613.548 144.169 Q 614.469 117.283 611.659 113.304 Q 609.75 110.6 591.834 111.112 L 591.834 87.001 L 595.61 84.809 L 595.61 81.521 Q 562.619 76.448 544.61 76.041 Q 526.333 75.629 492.707 79.329 L 492.707 81.521 L 496.483 84.809 Z " fill="transparent" vector-effect="non-scaling-stroke" stroke-width="1" stroke="rgb(0,0,0)" stroke-linejoin="miter" stroke-linecap="square" stroke-miterlimit="3"/><path d=" M 495.539 116.698 Q 491.93 124.205 480.434 133.181 Q 478.246 126.089 478.546 122.072 Q 478.86 117.878 482.322 111.112 C 487.088 109.957 492.456 109.277 498.372 109.006 Q 496.775 114.128 495.539 116.698 L 495.539 116.698 L 495.539 116.698 Z  M 496.483 84.809 L 496.483 101.441 Q 485.725 102.621 476.658 104.537 Q 474.327 105.029 471.938 122.072 L 472.882 137.416 L 472.882 141.799 L 467.217 147.279 L 466.956 394.702 C 469.655 413.784 516.322 431.922 547.463 430.964 C 576.522 430.069 603.027 427.481 622.044 394.702 L 620.156 153.855 L 613.548 144.169 Q 614.469 117.283 611.659 113.304 Q 609.75 110.6 591.834 111.112 L 591.834 99.057 L 591.834 87.001 L 595.61 84.809 L 595.61 81.521 Q 562.619 76.448 544.61 76.041 Q 526.333 75.629 492.707 79.329 L 492.707 81.521 L 496.483 84.809 L 496.483 84.809 L 496.483 84.809 Z  M 598.442 115.599 Q 596.432 115.728 592.778 116.698 Q 595.476 123.77 597.498 127.057 Q 600.261 131.546 606.939 137.416 L 606.939 116.698 Q 601.447 115.408 598.442 115.599 Z " fill-rule="evenodd" fill="rgb(255,255,255)" vector-effect="non-scaling-stroke" stroke-width="1" stroke="rgb(0,0,0)" stroke-linejoin="miter" stroke-linecap="square" stroke-miterlimit="3"/></g><g><path d=" M 424.678 241.282 L 424.678 249.62 Q 414.411 250.211 405.759 251.171 Q 403.534 251.418 401.254 259.962 L 402.155 267.654 L 402.155 269.852 L 396.75 272.599 L 396.5 396.634 C 399.075 406.2 443.61 415.293 473.328 414.812 C 501.059 414.364 526.352 413.066 544.5 396.634 L 542.698 275.895 L 536.392 271.039 Q 537.271 257.561 534.59 255.567 Q 532.768 254.211 515.671 254.468 L 515.671 242.381 L 519.274 241.282 L 519.274 239.634 Q 487.791 237.09 470.605 236.887 Q 453.164 236.68 421.074 238.535 L 421.074 239.634 L 424.678 241.282 Z " fill="none" vector-effect="non-scaling-stroke" stroke-width="1" stroke="rgb(0,0,0)" stroke-linejoin="miter" stroke-linecap="square" stroke-miterlimit="3"/><clipPath id="_clipPath_7GwppZbmeVpxvubOl5wPVo6AKmKwFqmT"><path d=" M 424.678 241.282 L 424.678 249.62 Q 414.411 250.211 405.759 251.171 Q 403.534 251.418 401.254 259.962 L 402.155 267.654 L 402.155 269.852 L 396.75 272.599 L 396.5 396.634 C 399.075 406.2 443.61 415.293 473.328 414.812 C 501.059 414.364 526.352 413.066 544.5 396.634 L 542.698 275.895 L 536.392 271.039 Q 537.271 257.561 534.59 255.567 Q 532.768 254.211 515.671 254.468 L 515.671 242.381 L 519.274 241.282 L 519.274 239.634 Q 487.791 237.09 470.605 236.887 Q 453.164 236.68 421.074 238.535 L 421.074 239.634 L 424.678 241.282 Z " fill="none" vector-effect="non-scaling-stroke" stroke-width="1" stroke="rgb(0,0,0)" stroke-linejoin="miter" stroke-linecap="square" stroke-miterlimit="3"/></clipPath><g clip-path="url(#_clipPath_7GwppZbmeVpxvubOl5wPVo6AKmKwFqmT)"><path d=" M 423.777 257.268 Q 420.333 261.031 409.362 265.531 Q 407.274 261.976 407.561 259.962 Q 407.86 257.86 411.164 254.468 C 415.712 253.889 420.835 253.548 426.48 253.412 Q 424.957 255.979 423.777 257.268 Z " fill="none" vector-effect="non-scaling-stroke" stroke-width="1" stroke="rgb(0,0,0)" stroke-linejoin="miter" stroke-linecap="square" stroke-miterlimit="3"/><path d=" M 521.977 256.717 Q 520.058 256.782 516.572 257.268 Q 519.146 260.813 521.076 262.461 Q 523.712 264.711 530.085 267.654 L 530.085 257.268 Q 524.845 256.621 521.977 256.717 Z " fill="none" vector-effect="non-scaling-stroke" stroke-width="1" stroke="rgb(0,0,0)" stroke-linejoin="miter" stroke-linecap="square" stroke-miterlimit="3"/></g><path d=" M 424.678 241.282 L 424.678 249.62 Q 414.411 250.211 405.759 251.171 Q 403.534 251.418 401.254 259.962 L 402.155 267.654 L 402.155 269.852 L 396.75 272.599 L 396.5 396.634 C 399.075 406.2 443.61 415.293 473.328 414.812 C 501.059 414.364 526.352 413.066 544.5 396.634 L 542.698 275.895 L 536.392 271.039 Q 537.271 257.561 534.59 255.567 Q 532.768 254.211 515.671 254.468 L 515.671 242.381 L 519.274 241.282 L 519.274 239.634 Q 487.791 237.09 470.605 236.887 Q 453.164 236.68 421.074 238.535 L 421.074 239.634 L 424.678 241.282 Z " fill="transparent" vector-effect="non-scaling-stroke" stroke-width="1" stroke="rgb(0,0,0)" stroke-linejoin="miter" stroke-linecap="square" stroke-miterlimit="3"/><path d=" M 423.777 257.268 Q 420.333 261.031 409.362 265.531 Q 407.274 261.976 407.561 259.962 Q 407.86 257.86 411.164 254.468 C 415.712 253.889 420.835 253.548 426.48 253.412 Q 424.957 255.979 423.777 257.268 L 423.777 257.268 L 423.777 257.268 Z  M 424.678 241.282 L 424.678 249.62 Q 414.411 250.211 405.759 251.171 Q 403.534 251.418 401.254 259.962 L 402.155 267.654 L 402.155 269.852 L 396.75 272.599 L 396.5 396.634 C 399.075 406.2 443.61 415.293 473.328 414.812 C 501.059 414.364 526.352 413.066 544.5 396.634 L 542.698 275.895 L 536.392 271.039 Q 537.271 257.561 534.59 255.567 Q 532.768 254.211 515.671 254.468 L 515.671 248.424 L 515.671 242.381 L 519.274 241.282 L 519.274 239.634 Q 487.791 237.09 470.605 236.887 Q 453.164 236.68 421.074 238.535 L 421.074 239.634 L 424.678 241.282 L 424.678 241.282 L 424.678 241.282 Z  M 521.977 256.717 Q 520.058 256.782 516.572 257.268 Q 519.146 260.813 521.076 262.461 Q 523.712 264.711 530.085 267.654 L 530.085 257.268 Q 524.845 256.621 521.977 256.717 Z " fill-rule="evenodd" fill="rgb(255,255,255)" vector-effect="non-scaling-stroke" stroke-width="1" stroke="rgb(0,0,0)" stroke-linejoin="miter" stroke-linecap="square" stroke-miterlimit="3"/></g><g><path d=" M 257.058 47.384 L 257.058 67.495 Q 241.917 68.922 229.155 71.238 Q 225.874 71.834 222.512 92.442 L 223.84 110.996 L 223.84 116.297 L 215.868 122.923 L 215.5 422.108 C 219.298 445.182 284.98 467.115 328.809 465.956 C 369.708 464.874 407.011 461.745 433.777 422.108 L 431.12 130.874 L 421.819 119.162 Q 423.115 86.651 419.161 81.84 Q 416.474 78.57 391.258 79.19 L 391.258 50.034 L 396.573 47.384 L 396.573 43.408 Q 350.14 37.273 324.794 36.782 Q 299.07 36.283 251.743 40.757 L 251.743 43.408 L 257.058 47.384 Z " fill="none" vector-effect="non-scaling-stroke" stroke-width="1" stroke="rgb(0,0,0)" stroke-linejoin="miter" stroke-linecap="square" stroke-miterlimit="3"/><clipPath id="_clipPath_n1yAHCBDWXAV5Xv7Ld6b2IJck2pCq81u"><path d=" M 257.058 47.384 L 257.058 67.495 Q 241.917 68.922 229.155 71.238 Q 225.874 71.834 222.512 92.442 L 223.84 110.996 L 223.84 116.297 L 215.868 122.923 L 215.5 422.108 C 219.298 445.182 284.98 467.115 328.809 465.956 C 369.708 464.874 407.011 461.745 433.777 422.108 L 431.12 130.874 L 421.819 119.162 Q 423.115 86.651 419.161 81.84 Q 416.474 78.57 391.258 79.19 L 391.258 50.034 L 396.573 47.384 L 396.573 43.408 Q 350.14 37.273 324.794 36.782 Q 299.07 36.283 251.743 40.757 L 251.743 43.408 L 257.058 47.384 Z " fill="none" vector-effect="non-scaling-stroke" stroke-width="1" stroke="rgb(0,0,0)" stroke-linejoin="miter" stroke-linecap="square" stroke-miterlimit="3"/></clipPath><g clip-path="url(#_clipPath_n1yAHCBDWXAV5Xv7Ld6b2IJck2pCq81u)"><path d=" M 255.729 85.944 Q 250.65 95.022 234.47 105.875 Q 231.39 97.299 231.813 92.442 Q 232.254 87.371 237.127 79.19 C 243.834 77.792 251.39 76.97 259.716 76.643 Q 257.469 82.836 255.729 85.944 Z " fill="none" vector-effect="non-scaling-stroke" stroke-width="1" stroke="rgb(0,0,0)" stroke-linejoin="miter" stroke-linecap="square" stroke-miterlimit="3"/><path d=" M 400.559 84.615 Q 397.73 84.771 392.587 85.944 Q 396.384 94.495 399.23 98.47 Q 403.118 103.898 412.518 110.996 L 412.518 85.944 Q 404.788 84.383 400.559 84.615 Z " fill="none" vector-effect="non-scaling-stroke" stroke-width="1" stroke="rgb(0,0,0)" stroke-linejoin="miter" stroke-linecap="square" stroke-miterlimit="3"/></g><path d=" M 257.058 47.384 L 257.058 67.495 Q 241.917 68.922 229.155 71.238 Q 225.874 71.834 222.512 92.442 L 223.84 110.996 L 223.84 116.297 L 215.868 122.923 L 215.5 422.108 C 219.298 445.182 284.98 467.115 328.809 465.956 C 369.708 464.874 407.011 461.745 433.777 422.108 L 431.12 130.874 L 421.819 119.162 Q 423.115 86.651 419.161 81.84 Q 416.474 78.57 391.258 79.19 L 391.258 50.034 L 396.573 47.384 L 396.573 43.408 Q 350.14 37.273 324.794 36.782 Q 299.07 36.283 251.743 40.757 L 251.743 43.408 L 257.058 47.384 Z " fill="transparent" vector-effect="non-scaling-stroke" stroke-width="1" stroke="rgb(0,0,0)" stroke-linejoin="miter" stroke-linecap="square" stroke-miterlimit="3"/><path d=" M 255.729 85.944 Q 250.65 95.022 234.47 105.875 Q 231.39 97.299 231.813 92.442 Q 232.254 87.371 237.127 79.19 C 243.834 77.792 251.39 76.97 259.716 76.643 Q 257.469 82.836 255.729 85.944 L 255.729 85.944 L 255.729 85.944 Z  M 257.058 47.384 L 257.058 67.495 Q 241.917 68.922 229.155 71.238 Q 225.874 71.834 222.512 92.442 L 223.84 110.996 L 223.84 116.297 L 215.868 122.923 L 215.5 422.108 C 219.298 445.182 284.98 467.115 328.809 465.956 C 369.708 464.874 407.011 461.745 433.777 422.108 L 431.12 130.874 L 421.819 119.162 Q 423.115 86.651 419.161 81.84 Q 416.474 78.57 391.258 79.19 L 391.258 64.612 L 391.258 50.034 L 396.573 47.384 L 396.573 43.408 Q 350.14 37.273 324.794 36.782 Q 299.07 36.283 251.743 40.757 L 251.743 43.408 L 257.058 47.384 L 257.058 47.384 L 257.058 47.384 Z  M 400.559 84.615 Q 397.73 84.771 392.587 85.944 Q 396.384 94.495 399.23 98.47 Q 403.118 103.898 412.518 110.996 L 412.518 85.944 Q 404.788 84.383 400.559 84.615 Z " fill-rule="evenodd" fill="rgb(255,255,255)" vector-effect="non-scaling-stroke" stroke-width="1" stroke="rgb(0,0,0)" stroke-linejoin="miter" stroke-linecap="square" stroke-miterlimit="3"/></g><rect x="0" y="282.348" width="600" height="117.652" transform="matrix(1,0,0,1,0,0)" fill="rgb(251,251,251)"/><g clip-path="url(#_clipPath_1R0zKj63NzisHb5xfa5sJjhY8TjTngNr)"><text transform="matrix(1,0,0,1,17,344.506)" style="font-family:'Roboto';font-weight:400;font-size:67px;font-style:normal;fill:#000000;stroke:none;">Mi Ranchito Digital </text></g><defs><clipPath id="_clipPath_1R0zKj63NzisHb5xfa5sJjhY8TjTngNr"><rect x="0" y="0" width="600" height="87" transform="matrix(1,0,0,1,17,282.348)"/></clipPath></defs><g clip-path="url(#_clipPath_5wVG5HUgk1lToLvTSSlyJhYGXAN8wEzd)"><text transform="matrix(1,0,0,1,164,379.339)" style="font-family:'Roboto';font-weight:400;font-size:32px;font-style:normal;fill:#000000;stroke:none;">miranchito.digital</text></g><defs><clipPath id="_clipPath_5wVG5HUgk1lToLvTSSlyJhYGXAN8wEzd"><rect x="0" y="0" width="293" height="50.348" transform="matrix(1,0,0,1,164,349.652)"/></clipPath></defs></g></svg>