<?xml version="1.0" encoding="UTF-8" standalone="no"?><!-- Generator: Gravit.io --><svg xmlns="http://www.w3.org/2000/svg" xmlns:xlink="http://www.w3.org/1999/xlink" style="isolation:isolate" viewBox="10 280 190 190" width="190pt" height="190pt"><defs><clipPath id="_clipPath_4YbmOaLWCoYRhFhiVEmYgpb1CINLOY6X"><rect x="10" y="280" width="190" height="190"/></clipPath></defs><g clip-path="url(#_clipPath_4YbmOaLWCoYRhFhiVEmYgpb1CINLOY6X)"><path d="M 30 280 L 180 280 C 191.038 280 200 288.962 200 300 L 200 450 C 200 461.038 191.038 470 180 470 L 30 470 C 18.962 470 10 461.038 10 450 L 10 300 C 10 288.962 18.962 280 30 280 Z" style="stroke:none;fill:#000000;stroke-miterlimit:10;"/><path d=" M 94.646 433.497 L 50 370 L 100 370 L 100 310 L 112 310 L 170 310 L 94.646 433.497 L 94.646 433.497 L 94.646 433.497 Z  M 90 460 L 40 390 L 40 460 L 20 460 L 20 290 L 90 290 L 100 290 L 190 290 L 190 308.889 L 110 441.111 L 190 441.111 L 190 460 L 90 460 L 90 460 L 90 460 L 90 460 Z  M 40 310 L 40 350 L 80 350 L 80 310 L 40 310 Z " fill-rule="evenodd" fill="rgb(255,255,255)"/></g></svg>