<?xml version="1.0" encoding="UTF-8" standalone="no"?><!-- Generator: Gravit.io --><svg xmlns="http://www.w3.org/2000/svg" xmlns:xlink="http://www.w3.org/1999/xlink" style="isolation:isolate" viewBox="20 290 170 170" width="170pt" height="170pt"><defs><clipPath id="_clipPath_71wf9uLZgiimIBb6XnHHod0lpJU0DeVz"><rect x="20" y="290" width="170" height="170"/></clipPath></defs><g clip-path="url(#_clipPath_71wf9uLZgiimIBb6XnHHod0lpJU0DeVz)"><path d=" M 94.646 433.497 L 50 370 L 100 370 L 100 310 L 112 310 L 170 310 L 94.646 433.497 L 94.646 433.497 L 94.646 433.497 Z  M 90 460 L 40 390 L 40 460 L 20 460 L 20 290 L 90 290 L 100 290 L 190 290 L 190 308.889 L 110 441.111 L 190 441.111 L 190 460 L 90 460 L 90 460 L 90 460 L 90 460 Z  M 40 310 L 40 350 L 80 350 L 80 310 L 40 310 Z " fill-rule="evenodd" fill="rgb(0,0,0)"/></g></svg>