<?xml version="1.0" encoding="UTF-8" standalone="no"?>
<!-- Generator: Gravit.io -->
<svg xmlns="http://www.w3.org/2000/svg" xmlns:xlink="http://www.w3.org/1999/xlink" style="isolation:isolate" viewBox="695.687 233.107 142.457 96.372" width="142.457pt" height="96.372pt"><defs><clipPath id="_clipPath_yIisIu1lJqIsOczEUaRc1cyEA3sJUAWU"><rect x="695.687" y="233.107" width="142.457" height="96.372"/></clipPath></defs><g clip-path="url(#_clipPath_yIisIu1lJqIsOczEUaRc1cyEA3sJUAWU)"><g style="isolation:isolate"><g><path d=" M 719.633 308.642 C 711.883 290.392 733.644 288.889 718.311 266.889 C 712.311 256.889 695.132 239.979 701.633 238.392 C 723.133 233.142 745.883 255.55 757.883 266.217 C 765.173 269.862 771.191 270.621 778.633 269.717 C 788.956 268.463 793.714 259.394 803.633 255.392 C 817.883 249.642 824.383 251.717 833.644 259.556 C 824.883 273.717 821.133 272.317 809.133 279.642 C 800.037 286.231 800.982 284.925 801.834 302.023 C 801.942 304.19 802.049 306.654 802.133 309.467 C 799.467 325.467 782.67 328.94 778.489 320.578 C 771.052 305.704 767.351 294.515 754.978 306.889 C 735.644 324.889 722.956 314.394 719.633 308.642 Z " fill="rgb(255,255,255)" vector-effect="non-scaling-stroke" stroke-width="3" stroke="rgb(0,0,0)" stroke-linejoin="miter" stroke-linecap="square" stroke-miterlimit="3"/><clipPath id="_clipPath_Yj4G68okbhP2GqAC7UGPlKMpnd8oqeog"><path d=" M 719.633 308.642 C 711.883 290.392 733.644 288.889 718.311 266.889 C 712.311 256.889 695.132 239.979 701.633 238.392 C 723.133 233.142 745.883 255.55 757.883 266.217 C 765.173 269.862 771.191 270.621 778.633 269.717 C 788.956 268.463 793.714 259.394 803.633 255.392 C 817.883 249.642 824.383 251.717 833.644 259.556 C 824.883 273.717 821.133 272.317 809.133 279.642 C 800.037 286.231 800.982 284.925 801.834 302.023 C 801.942 304.19 802.049 306.654 802.133 309.467 C 799.467 325.467 782.67 328.94 778.489 320.578 C 771.052 305.704 767.351 294.515 754.978 306.889 C 735.644 324.889 722.956 314.394 719.633 308.642 Z " fill="rgb(255,255,255)" vector-effect="non-scaling-stroke" stroke-width="3" stroke="rgb(0,0,0)" stroke-linejoin="miter" stroke-linecap="square" stroke-miterlimit="3"/></clipPath><g clip-path="url(#_clipPath_Yj4G68okbhP2GqAC7UGPlKMpnd8oqeog)"><path d=" M 733.133 282.875 C 720.181 296.767 728.133 312.125 737.383 308.875 C 746.633 305.625 750.383 298.875 756.883 295.375 C 763.383 291.875 769.883 291.625 773.133 297.875 C 776.383 304.125 782.133 318.375 785.883 318.875 C 789.633 319.375 800.671 315.281 796.383 291.375 C 793.786 276.892 779.133 286.125 770.383 286.625 C 761.633 287.125 754.133 281.875 749.133 279.125 C 744.133 276.375 738.718 276.885 733.133 282.875 Z " fill="rgb(0,0,0)" vector-effect="non-scaling-stroke" stroke-width="1" stroke="rgb(0,0,0)" stroke-linejoin="miter" stroke-linecap="square" stroke-miterlimit="3"/></g><path d=" M 719.633 308.642 C 711.883 290.392 733.644 288.889 718.311 266.889 C 712.311 256.889 695.132 239.979 701.633 238.392 C 723.133 233.142 745.883 255.55 757.883 266.217 C 765.173 269.862 771.191 270.621 778.633 269.717 C 788.956 268.463 793.714 259.394 803.633 255.392 C 817.883 249.642 824.383 251.717 833.644 259.556 C 824.883 273.717 821.133 272.317 809.133 279.642 C 800.037 286.231 800.982 284.925 801.834 302.023 C 801.942 304.19 802.049 306.654 802.133 309.467 C 799.467 325.467 782.67 328.94 778.489 320.578 C 771.052 305.704 767.351 294.515 754.978 306.889 C 735.644 324.889 722.956 314.394 719.633 308.642 Z " fill="transparent" vector-effect="non-scaling-stroke" stroke-width="3" stroke="rgb(0,0,0)" stroke-linejoin="miter" stroke-linecap="square" stroke-miterlimit="3"/></g></g></g></svg>